<svg xmlns="http://www.w3.org/2000/svg" width="64" height="64" viewBox="0 0 64 64">
  <defs>
    <linearGradient id="g" x1="0" x2="1" y1="0" y2="1">
      <stop offset="0%" stop-color="#7C3AED"/>
      <stop offset="100%" stop-color="#22D3EE"/>
    </linearGradient>
  </defs>
  <rect x="4" y="4" width="56" height="56" rx="14" fill="#0B0F14"/>
  <path d="M22 18h12c7 0 12 4 12 10c0 4-2 7-6 8c4 1 6 4 6 8c0 6-5 10-12 10H22V18zm12 14c3 0 6-2 6-4s-3-4-6-4h-6v8h6zm0 18c3 0 6-2 6-5s-3-5-6-5h-6v10h6z" fill="url(#g)"/>
</svg>